<svg xmlns="http://www.w3.org/2000/svg" viewBox="0 0 1090 650" font-family="Helvetica,Arial,sans-serif">
<style>.w{stroke:#111;stroke-width:2;fill:none}.c{stroke:#111;stroke-width:2;fill:#fff}.lbl{font-size:13px;fill:#111}.val{font-size:12px;fill:#444}.big{font-size:18px;font-weight:bold;fill:#111}</style>
<rect width="1090" height="650" fill="#fff"/>
<text x="24" y="34" class="big" text-anchor="start">Isolated opener channel (repeat this per opener)</text>
<line x1="420" y1="95" x2="420" y2="590" stroke="#c53030" stroke-width="1.5" stroke-dasharray="6 5"/>
<text x="420" y="88" class="val" text-anchor="middle">galvanic isolation</text>
<text x="420" y="612" class="val" text-anchor="middle">ESP GND (left) and opener GND (right) are separate — no ground crosses the barrier</text>
<text x="215" y="128" class="val" text-anchor="middle">ESP domain (shared)</text>
<text x="800" y="128" class="val" text-anchor="middle">opener domain (floating, one per opener)</text>
<rect x="30" y="175" width="150" height="255" rx="6" fill="#eaf2ff" stroke="#2b6cb0" stroke-width="2"/>
<text x="105" y="203" class="big" text-anchor="middle">ESP32</text>
<text x="192" y="214" class="val" text-anchor="end">3V3</text>
<polyline class="w" points="180,210 200,210"/>
<circle cx="200" cy="210" r="3.6" fill="#111"/>
<text x="192" y="274" class="val" text-anchor="end">tx_pin</text>
<polyline class="w" points="180,270 200,270"/>
<circle cx="200" cy="270" r="3.6" fill="#111"/>
<text x="192" y="394" class="val" text-anchor="end">rx_pin</text>
<polyline class="w" points="180,390 200,390"/>
<circle cx="200" cy="390" r="3.6" fill="#111"/>
<text x="192" y="419" class="val" text-anchor="end">GND</text>
<polyline class="w" points="180,415 200,415"/>
<circle cx="200" cy="415" r="3.6" fill="#111"/>
<polyline class="w" points="200,415 255,415"/>
<polyline class="w" points="255,415 255,424"/><line class="w" x1="245" y1="424" x2="265" y2="424"/><line class="w" x1="249" y1="428" x2="261" y2="428"/><line class="w" x1="252.5" y1="432" x2="257.5" y2="432"/>
<text x="275" y="428" class="val" text-anchor="start">ESP GND</text>
<polyline class="w" points="200,270 255.0,270"/><polyline class="w" points="299.0,270 354,270"/><rect class="c" x="255.0" y="262" width="44" height="16"/><text x="277.0" y="291" class="val" text-anchor="middle">10k</text>
<rect class="c" x="354" y="248" width="132" height="84" rx="4" fill="#fafafa"/><line x1="420" y1="248" x2="420" y2="332" stroke="#c53030" stroke-width="1.3" stroke-dasharray="4 3"/><polyline class="w" points="354,270 382,270 382,281"/><polygon class="c" points="371,281 393,281 382,297"/><line class="w" x1="371" y1="297" x2="393" y2="297"/><polyline class="w" points="382,297 382,310 354,310"/><line class="w" x1="395" y1="286" x2="406" y2="286"/><line class="w" x1="395" y1="294" x2="406" y2="294"/><circle class="c" cx="458" cy="290" r="15" fill="#fff"/><polyline class="w" points="486,270 443,270 458,276"/><polyline class="w" points="486,310 443,310 458,304"/><line class="w" x1="452" y1="279" x2="452" y2="301"/>
<text x="420" y="236" class="val" text-anchor="middle">opto (TX)</text>
<polyline class="w" points="354,310 354,340"/>
<polyline class="w" points="354,340 354,349"/><line class="w" x1="344" y1="349" x2="364" y2="349"/><line class="w" x1="348" y1="353" x2="360" y2="353"/><line class="w" x1="351.5" y1="357" x2="356.5" y2="357"/>
<rect class="c" x="354" y="368" width="132" height="84" rx="4" fill="#fafafa"/><line x1="420" y1="368" x2="420" y2="452" stroke="#c53030" stroke-width="1.3" stroke-dasharray="4 3"/><polyline class="w" points="486,390 458,390 458,401"/><polygon class="c" points="447,401 469,401 458,417"/><line class="w" x1="447" y1="417" x2="469" y2="417"/><polyline class="w" points="458,417 458,430 486,430"/><line class="w" x1="445" y1="406" x2="434" y2="406"/><line class="w" x1="445" y1="414" x2="434" y2="414"/><circle class="c" cx="382" cy="410" r="15" fill="#fff"/><polyline class="w" points="354,390 397,390 382,396"/><polyline class="w" points="354,430 397,430 382,424"/><line class="w" x1="376" y1="399" x2="376" y2="421"/>
<text x="420" y="470" class="val" text-anchor="middle">opto (RX)</text>
<polyline class="w" points="354,390 200,390"/>
<circle cx="250" cy="390" r="3.6" fill="#111"/>
<polyline class="w" points="250,390 250,298.0"/><polyline class="w" points="250,342.0 250,250"/><rect class="c" x="242" y="298.0" width="16" height="44"/><text x="263" y="324.0" class="val" text-anchor="start">10k</text>
<polyline class="w" points="250,250 250,210 200,210"/>
<polyline class="w" points="354,430 354,460"/>
<polyline class="w" points="354,460 354,469"/><line class="w" x1="344" y1="469" x2="364" y2="469"/><line class="w" x1="348" y1="473" x2="360" y2="473"/><line class="w" x1="351.5" y1="477" x2="356.5" y2="477"/>
<polyline class="w" points="486,270 486,172"/>
<polyline class="w" points="486,172 588,172"/>
<circle cx="486" cy="172" r="3.6" fill="#111"/>
<text x="492" y="165" class="val" text-anchor="start">opener Vcc</text>
<rect class="c" x="588" y="143" width="134" height="58"/>
<text x="655.0" y="169" class="lbl" text-anchor="middle">3.3 V regulator</text>
<text x="655.0" y="187" class="val" text-anchor="middle">(LDO or buck)</text>
<text x="594" y="157" class="val" text-anchor="start">OUT</text>
<text x="716" y="157" class="val" text-anchor="end">IN</text>
<polyline class="w" points="722,172 770,172 770,255"/>
<text x="746" y="188" class="val" text-anchor="start">from RED / ~12 V</text>
<polyline class="w" points="655.0,201 655.0,216"/>
<polyline class="w" points="655.0,216 655.0,225"/><line class="w" x1="645.0" y1="225" x2="665.0" y2="225"/><line class="w" x1="649.0" y1="229" x2="661.0" y2="229"/><line class="w" x1="652.5" y1="233" x2="657.5" y2="233"/>
<text x="667.0" y="213" class="val" text-anchor="start">GND</text>
<line class="w" x1="620" y1="290" x2="620" y2="330"/><line class="w" x1="610" y1="290" x2="610" y2="330"/><polyline class="w" points="610,310 584,310"/><polyline class="w" points="620,290 642,290 642,274"/><polyline class="w" points="620,330 642,330 642,346"/>
<text x="620" y="300" class="val" text-anchor="middle">Q1</text>
<polyline class="w" points="486,310 540,310 584,310"/>
<circle cx="540" cy="310" r="3.6" fill="#111"/>
<polyline class="w" points="540,310 540,319.0"/><polyline class="w" points="540,363.0 540,372"/><rect class="c" x="532" y="319.0" width="16" height="44"/><text x="553" y="345.0" class="val" text-anchor="start">10k</text>
<polyline class="w" points="540,372 540,381"/><line class="w" x1="530" y1="381" x2="550" y2="381"/><line class="w" x1="534" y1="385" x2="546" y2="385"/><line class="w" x1="537.5" y1="389" x2="542.5" y2="389"/>
<polyline class="w" points="642,274 642,255 770,255"/>
<polyline class="w" points="642,346 642,355"/><line class="w" x1="632" y1="355" x2="652" y2="355"/><line class="w" x1="636" y1="359" x2="648" y2="359"/><line class="w" x1="639.5" y1="363" x2="644.5" y2="363"/>
<line class="w" x1="620" y1="410" x2="620" y2="450"/><line class="w" x1="630" y1="410" x2="630" y2="450"/><polyline class="w" points="630,430 656,430"/><polyline class="w" points="620,410 598,410 598,394"/><polyline class="w" points="620,450 598,450 598,466"/>
<text x="620" y="420" class="val" text-anchor="middle">Q2</text>
<polyline class="w" points="656,430 691.0,430"/><polyline class="w" points="735.0,430 770,430"/><rect class="c" x="691.0" y="422" width="44" height="16"/><text x="713.0" y="451" class="val" text-anchor="middle">10k</text>
<polyline class="w" points="598,394 598,430 486,430"/>
<polyline class="w" points="486,390 501.0,390"/><polyline class="w" points="545.0,390 560,390"/><rect class="c" x="501.0" y="382" width="44" height="16"/><text x="523.0" y="411" class="val" text-anchor="middle">10k</text>
<polyline class="w" points="560,390 560,172"/>
<circle cx="560" cy="172" r="3.6" fill="#111"/>
<polyline class="w" points="598,466 598,475"/><line class="w" x1="588" y1="475" x2="608" y2="475"/><line class="w" x1="592" y1="479" x2="604" y2="479"/><line class="w" x1="595.5" y1="483" x2="600.5" y2="483"/>
<polyline class="w" points="770,255 770,430"/>
<circle cx="770" cy="255" r="3.6" fill="#111"/>
<circle cx="770" cy="430" r="3.6" fill="#111"/>
<text x="764" y="300" class="val" text-anchor="end">DATA (~12 V idle)</text>
<rect x="820" y="220" width="200" height="300" rx="6" fill="#fff5f5" stroke="#c53030" stroke-width="2" stroke-dasharray="7 5"/>
<text x="832" y="244" class="lbl" text-anchor="start">Opener</text>
<polyline class="w" points="770,255 820,255"/>
<circle cx="820" cy="255" r="6" fill="#e53e3e" stroke="#111" stroke-width="1.5"/><text x="833" y="275" class="lbl" text-anchor="start">RED (data)</text>
<polyline class="w" points="820,255 935,255"/>
<circle cx="935" cy="255" r="3.6" fill="#111"/>
<polyline class="w" points="935,255 935,210.5"/><polyline class="w" points="935,254.5 935,210"/><rect class="c" x="927" y="210.5" width="16" height="44"/><text x="948" y="236.5" class="val" text-anchor="start">~12 V</text>
<polyline class="w" points="935,210 935,199"/><line class="w" x1="925" y1="199" x2="945" y2="199"/><text x="935" y="194" class="val" text-anchor="middle">+12 V (internal)</text>
<circle cx="820" cy="470" r="6" fill="#eeeeee" stroke="#111" stroke-width="1.5"/><text x="833" y="458" class="lbl" text-anchor="start">WHITE (gnd)</text>
<polyline class="w" points="820,470 795,470"/>
<polyline class="w" points="795,470 795,479"/><line class="w" x1="785" y1="479" x2="805" y2="479"/><line class="w" x1="789" y1="483" x2="801" y2="483"/><line class="w" x1="792.5" y1="487" x2="797.5" y2="487"/>
<text x="700" y="500" class="val" text-anchor="start">opener GND (every ground right of the barrier)</text>
</svg>