<svg xmlns="http://www.w3.org/2000/svg" viewBox="0 0 960 560" font-family="Helvetica,Arial,sans-serif">
<style>.w{stroke:#111;stroke-width:2;fill:none}.c{stroke:#111;stroke-width:2;fill:#fff}.lbl{font-size:13px;fill:#111}.val{font-size:12px;fill:#444}.big{font-size:18px;font-weight:bold;fill:#111}</style>
<rect width="960" height="560" fill="#fff"/>
<text x="24" y="34" class="big" text-anchor="start">Security+ interface: ESP32 to opener  (data only, no obstruction)</text>
<rect x="30" y="110" width="160" height="360" rx="6" fill="#eaf2ff" stroke="#2b6cb0" stroke-width="2"/>
<text x="110" y="138" class="big" text-anchor="middle">ESP32</text>
<text x="110" y="156" class="val" text-anchor="middle">secplus_gdo hub</text>
<text x="182" y="164" class="val" text-anchor="end">3V3</text>
<polyline class="w" points="190,160 240,160"/>
<circle cx="240" cy="160" r="3.6" fill="#111"/>
<text x="182" y="234" class="val" text-anchor="end">tx_pin</text>
<polyline class="w" points="190,230 240,230"/>
<circle cx="240" cy="230" r="3.6" fill="#111"/>
<text x="182" y="428" class="val" text-anchor="end">rx_pin</text>
<polyline class="w" points="190,424 240,424"/>
<circle cx="240" cy="424" r="3.6" fill="#111"/>
<text x="182" y="456" class="val" text-anchor="end">GND</text>
<polyline class="w" points="190,452 240,452"/>
<circle cx="240" cy="452" r="3.6" fill="#111"/>
<rect x="270" y="195" width="290" height="120" rx="6" fill="#fafafa" stroke="#999" stroke-width="1.5" stroke-dasharray="4 3"/><text x="280" y="213" class="val" text-anchor="start">TX driver (inverting)</text>
<polyline class="w" points="240,230 290.0,230"/><polyline class="w" points="334.0,230 384,230"/><rect class="c" x="290.0" y="222" width="44" height="16"/><text x="312.0" y="251" class="val" text-anchor="middle">10k</text>
<polyline class="w" points="384,230 384,258"/>
<line class="w" x1="420" y1="238" x2="420" y2="278"/><line class="w" x1="410" y1="238" x2="410" y2="278"/><polyline class="w" points="410,258 384,258"/><polyline class="w" points="420,238 442,238 442,222"/><polyline class="w" points="420,278 442,278 442,294"/>
<polyline class="w" points="442,222 442,225 640,225"/>
<polyline class="w" points="442,294 442,303"/><line class="w" x1="432" y1="303" x2="452" y2="303"/><line class="w" x1="436" y1="307" x2="448" y2="307"/><line class="w" x1="439.5" y1="311" x2="444.5" y2="311"/>
<rect x="270" y="365" width="290" height="175" rx="6" fill="#fafafa" stroke="#999" stroke-width="1.5" stroke-dasharray="4 3"/><text x="280" y="383" class="val" text-anchor="start">RX sense (inverting)</text>
<polyline class="w" points="456,460 526.0,460"/><polyline class="w" points="570.0,460 640,460"/><rect class="c" x="526.0" y="452" width="44" height="16"/><text x="548.0" y="481" class="val" text-anchor="middle">10k</text>
<polyline class="w" points="456,460 456,460"/>
<line class="w" x1="420" y1="440" x2="420" y2="480"/><line class="w" x1="430" y1="440" x2="430" y2="480"/><polyline class="w" points="430,460 456,460"/><polyline class="w" points="420,440 398,440 398,424"/><polyline class="w" points="420,480 398,480 398,496"/>
<polyline class="w" points="398,424 398,379.0"/><polyline class="w" points="398,423.0 398,378"/><rect class="c" x="390" y="379.0" width="16" height="44"/><text x="411" y="405.0" class="val" text-anchor="start">10k</text>
<polyline class="w" points="398,378 398,367"/><line class="w" x1="388" y1="367" x2="408" y2="367"/><text x="398" y="362" class="val" text-anchor="middle">+3.3 V</text>
<polyline class="w" points="398,424 240,424"/>
<circle cx="398" cy="424" r="3.6" fill="#111"/>
<circle cx="240" cy="424" r="3.6" fill="#111"/>
<polyline class="w" points="398,496 398,505"/><line class="w" x1="388" y1="505" x2="408" y2="505"/><line class="w" x1="392" y1="509" x2="404" y2="509"/><line class="w" x1="395.5" y1="513" x2="400.5" y2="513"/>
<polyline class="w" points="640,225 640,460"/>
<circle cx="640" cy="225" r="3.6" fill="#111"/>
<circle cx="640" cy="460" r="3.6" fill="#111"/>
<text x="632" y="210" class="val" text-anchor="end">DATA (~12 V idle)</text>
<rect x="700" y="150" width="230" height="200" rx="6" fill="#fff5f5" stroke="#c53030" stroke-width="2" stroke-dasharray="7 5"/>
<text x="712" y="174" class="lbl" text-anchor="start">Opener wall control</text>
<polyline class="w" points="640,225 700,225"/>
<circle cx="700" cy="225" r="6" fill="#e53e3e" stroke="#111" stroke-width="1.5"/><text x="713" y="249" class="lbl" text-anchor="start">RED (control / data)</text>
<polyline class="w" points="700,225 900,225"/>
<circle cx="900" cy="225" r="3.6" fill="#111"/>
<polyline class="w" points="900,225 900,178.0"/><polyline class="w" points="900,222.0 900,175"/><rect class="c" x="892" y="178.0" width="16" height="44"/><text x="913" y="204.0" class="val" text-anchor="start">~12 V</text>
<polyline class="w" points="900,175 900,164"/><line class="w" x1="890" y1="164" x2="910" y2="164"/><text x="900" y="159" class="val" text-anchor="middle">+12 V</text>
<circle cx="700" cy="300" r="6" fill="#eeeeee" stroke="#111" stroke-width="1.5"/><text x="713" y="304" class="lbl" text-anchor="start">WHITE (ground)</text>
<polyline class="w" points="655,300 700,300"/>
<polyline class="w" points="655,300 655,309"/><line class="w" x1="645" y1="309" x2="665" y2="309"/><line class="w" x1="649" y1="313" x2="661" y2="313"/><line class="w" x1="652.5" y1="317" x2="657.5" y2="317"/>
</svg>